<svg width="92" height="92" viewBox="0 0 92 92" fill="none" xmlns="http://www.w3.org/2000/svg">
<path fill-rule="evenodd" clip-rule="evenodd" d="M45.5118 23.0967C59.0193 23.0967 69.9692 31.8727 69.9692 42.6984C69.9692 46.4798 68.6322 50.0104 66.3179 53.0047C66.2033 53.1751 66.0537 53.3634 65.865 53.5715L65.8507 53.587C65.0602 54.5337 64.1699 55.4225 63.191 56.2429C56.4277 62.4999 45.2953 69.9493 43.826 68.8C42.5488 67.801 45.9297 62.9146 42.0291 62.1014C41.7569 62.0702 41.4855 62.0366 41.2164 61.9985L41.2113 61.9981V61.9978C29.7548 60.3687 21.0547 52.348 21.0547 42.6984C21.0543 31.8727 32.0044 23.0967 45.5118 23.0967Z" fill="white"/>
<path fill-rule="evenodd" clip-rule="evenodd" d="M31.3224 48.9501H36.255C36.9567 48.9501 37.5306 48.3755 37.5306 47.6733V47.5668C37.5306 46.8645 36.9567 46.2901 36.255 46.2901H32.7043V38.2044C32.7043 37.5021 32.1304 36.9277 31.4288 36.9277H31.3224C30.6208 36.9277 30.0469 37.5021 30.0469 38.2044V47.6731C30.0469 48.3755 30.6208 48.9501 31.3224 48.9501ZM61.8877 43.015V42.9085C61.8877 42.2062 61.3136 41.6318 60.612 41.6318H57.0614V39.6103H60.612C61.3136 39.6103 61.8877 39.0359 61.8877 38.3337V38.2272C61.8877 37.5249 61.3136 36.9505 60.612 36.9505H55.6793C54.9777 36.9505 54.4038 37.5249 54.4038 38.2272V47.6959C54.4038 48.3982 54.9777 48.9727 55.6793 48.9727H60.612C61.3136 48.9727 61.8877 48.3982 61.8877 47.6959V47.5894C61.8877 46.8871 61.3136 46.3127 60.612 46.3127H57.0614V44.2913H60.612C61.3136 44.2916 61.8877 43.717 61.8877 43.015ZM52.4016 48.5695L52.4019 48.569C52.638 48.3308 52.7705 48.0089 52.7707 47.6735V38.2047C52.7707 37.5025 52.1969 36.9281 51.4951 36.9281H51.3886C50.687 36.9281 50.1131 37.5025 50.1131 38.2047V43.763L45.5027 37.5737C45.2825 37.1888 44.8678 36.9281 44.3952 36.9281H44.2888C43.5871 36.9281 43.0131 37.5025 43.0131 38.2047V47.6735C43.0131 48.3757 43.587 48.9503 44.2888 48.9503H44.3952C45.0968 48.9503 45.6707 48.3757 45.6707 47.6735V42.0112L50.3143 48.3593C50.3429 48.4038 50.3741 48.4465 50.4078 48.4872L50.408 48.4875C50.5356 48.6617 50.7101 48.7811 50.9046 48.854C51.0541 48.9158 51.2175 48.9501 51.3885 48.9501H51.4949C51.7027 48.9502 51.9074 48.899 52.0908 48.801C52.2184 48.7403 52.3259 48.6619 52.4016 48.5695ZM39.8356 48.9501H39.942C40.6436 48.9501 41.2175 48.3755 41.2175 47.6733V38.2046C41.2175 37.5023 40.6436 36.9279 39.942 36.9279H39.8356C39.134 36.9279 38.5599 37.5023 38.5599 38.2046V47.6733C38.5599 48.3755 39.134 48.9501 39.8356 48.9501Z" fill="black"/>
</svg>
